<mxfile host="app.diagrams.net" modified="2020-11-07T06:39:51.075Z" agent="5.0 (Windows NT 10.0; Win64; x64) AppleWebKit/537.36 (KHTML, like Gecko) Chrome/86.0.4240.183 Safari/537.36" etag="Mt2WaeLffNAmxVhdvOVw" version="13.8.8" type="github">
  <diagram id="rU2EVZJRt1pLJ-t33wD5" name="第 1 页">
    <mxGraphModel dx="1408" dy="780" grid="1" gridSize="10" guides="1" tooltips="1" connect="1" arrows="1" fold="1" page="1" pageScale="1" pageWidth="827" pageHeight="1169" math="0" shadow="0">
      <root>
        <mxCell id="0" />
        <mxCell id="1" parent="0" />
        <mxCell id="eJCWp1MCnHrIJV1wkIVs-7" value="" style="rounded=0;whiteSpace=wrap;html=1;strokeColor=#000000;strokeWidth=1;" parent="1" vertex="1">
          <mxGeometry x="244" y="750" width="340" height="410" as="geometry" />
        </mxCell>
        <mxCell id="eJCWp1MCnHrIJV1wkIVs-9" value="&lt;font face=&quot;Comic Sans MS&quot;&gt;&lt;b&gt;Work2 192.168.2.133/24&lt;/b&gt;&lt;br&gt;&lt;b&gt;PodCirdr 172.16.1.0/24&lt;/b&gt;&lt;br&gt;&lt;/font&gt;" style="text;html=1;resizable=0;autosize=1;align=center;verticalAlign=middle;points=[];fillColor=none;strokeColor=none;rounded=0;" parent="1" vertex="1">
          <mxGeometry x="600" y="1110" width="170" height="40" as="geometry" />
        </mxCell>
        <mxCell id="eJCWp1MCnHrIJV1wkIVs-10" value="&lt;div&gt;&lt;b style=&quot;font-family: &amp;#34;comic sans ms&amp;#34;&quot;&gt;172.16.123.5&lt;/b&gt;&lt;/div&gt;" style="rounded=0;whiteSpace=wrap;html=1;fillColor=#d5e8d4;strokeColor=#82b366;align=center;labelPosition=center;verticalLabelPosition=bottom;verticalAlign=top;" parent="1" vertex="1">
          <mxGeometry x="332" y="980" width="158" height="90" as="geometry" />
        </mxCell>
        <mxCell id="RmMoZj5zxQ0tkyEaWaPj-5" style="edgeStyle=none;rounded=0;orthogonalLoop=1;jettySize=auto;html=1;exitX=0;exitY=0.5;exitDx=0;exitDy=0;entryX=1;entryY=0.5;entryDx=0;entryDy=0;startArrow=oval;startFill=1;endArrow=oval;endFill=1;" edge="1" parent="1" source="eJCWp1MCnHrIJV1wkIVs-12" target="eJCWp1MCnHrIJV1wkIVs-21">
          <mxGeometry relative="1" as="geometry" />
        </mxCell>
        <mxCell id="eJCWp1MCnHrIJV1wkIVs-12" value="&lt;b&gt;&lt;font face=&quot;Comic Sans MS&quot;&gt;etho&lt;/font&gt;&lt;/b&gt;" style="rounded=0;whiteSpace=wrap;html=1;fillColor=#dae8fc;strokeColor=#6c8ebf;direction=south;" parent="1" vertex="1">
          <mxGeometry x="384" y="980" width="60" height="30" as="geometry" />
        </mxCell>
        <mxCell id="eJCWp1MCnHrIJV1wkIVs-16" value="&lt;b&gt;&lt;font face=&quot;Comic Sans MS&quot;&gt;ens33&lt;/font&gt;&lt;/b&gt;" style="rounded=0;whiteSpace=wrap;html=1;fillColor=#dae8fc;strokeColor=#6c8ebf;direction=south;" parent="1" vertex="1">
          <mxGeometry x="376" y="750" width="76" height="30" as="geometry" />
        </mxCell>
        <mxCell id="eJCWp1MCnHrIJV1wkIVs-21" value="&lt;font face=&quot;comic sans ms&quot; style=&quot;font-size: 12px&quot;&gt;&lt;b&gt;cali85354e41ec1&lt;/b&gt;&lt;/font&gt;" style="rounded=0;whiteSpace=wrap;html=1;fillColor=#dae8fc;strokeColor=#6c8ebf;direction=south;" parent="1" vertex="1">
          <mxGeometry x="345.62" y="920" width="136.75" height="22.5" as="geometry" />
        </mxCell>
        <mxCell id="eJCWp1MCnHrIJV1wkIVs-41" value="" style="shape=image;imageAspect=0;aspect=fixed;verticalLabelPosition=bottom;verticalAlign=top;image=data:image/png,iVBORw0KGgoAAAANSUhEUgAAAEAAAABACAYAAACqaXHeAAAMEElEQVR4Xs1bC5AcZRHunr21UEJZYiGCghGRcJn+NxUiAQqwgoABI08hhocIKkSgMAiCIqCi8hIS0CqDvLFECU+BII8Q5CgE5GUqO/1fcsFogAJEo5Zl1ORub9rqZWb5d3ZmZya3l/BXbe3dTP/df3//q1+LMM6NiLZFxD1F5CMAsKN+I+KOAKD/bwsA/wKAl/WDiK+IiP79iud5tl6v8zgPD3A8BNRqtY+GYXgkABwBAHuPQcafAeB+AFg6MjLyxNDQ0L/HwCu1a88A0JkGgDkA8FkAOKDXAwWA/wDAEkR8OAiC63rFf8wATJs2rTo8PHxGGIZnIOLEXg0sh8+LiHhdL4AYEwC+75+IiGcAwG4FFP8nAKx2Pn+K/t4SAD4YnQe6iuLPjAI8xwzERgHg+/4hiPi1nKX+XwB4EgAerVQqi5cvX76qgEItklqttuXo6Oj+iLg/ABwIAP1d+r8YhuGZg4ODvysjQ2lLA+D7/gmI+PMugm4EgAdHRkYe7eWhVavV9gjD8DQAOCFDtt4mc5n59jIglALAGDNXRH6WIWApIi4IguChMgMoS+v7/kGe580TkYPS+iLi3DJnQ2EAiOh7APDdFKF/BID5zJwFTFkdC9FHK/EcAKCUDucy8xVFGBUCgIjuie70JM8bq9XqecuWLftbEWG9pjHG7CQiNwDAfim8z2HmK/Nk5gJARCrgyymMzmfmS/IEbIr3RKT7fnZSlogcbK19uNsYugJARKq4AtDWROQYa+2iTaFcURlEdD4A/DBJj4gzgiB4IotPJgC+709GRJvScSYzLyk6sE1JZ4w5QEQeTZmw6dba51MPzawBEtHTALCX+15EvmWtvXxTKlVWljHmFBG5NjHuVSJy5ODgYMeEpq4A3/cXIOLXXSaRDX5w/ExvBUR8KQzDl6y1z5UdaC/oa7XanmEY7gwAOzOz3lLNRkR6A3wjAcIt1tqTOrZI8oHv+3sjYtKiWsnMbZaYMeY4Ebk16q8u7Ev6EREWkWcGBweX9ULJmIcxRlfjnmoRikhTaQDYQd8j4vFBEPzSlUdEjwDApxOTeGAQBEvbniUHSUR6uH3eeb5eRGZZa3/r0vq+Px0Rn+2i5PoIlBcUkEql8kxR/z5WVkT2EpEpiKjKelmyRGSP5CqcPHnyVM/z1BRXXyNui5n50EwAIhtf/e9WQ8TvBEHwgzThRLQmCmzkTrYeqGEYzrbWDnYjNsYcLSJ35DJ8m+BlZk71Qo0xF4rI9xO85rjmctsZQER6grq+/OpGo7HHypUr/54BQJI+ddxFlXeWexkQljKzOksdTV31DRs26Hae7rx8ipn3if9vARC5tjcnZv/sIAgWZM0GES0EgFO7zVZZ5TcChGuYWZ2k1EZEGpVSS9ZtJzDzL/RBCwAieiY6ZGLCYN26ddPXrFmjezm1+b5/GiL+tMByvZSZv12ArkVCRLoNjs7rIyKnW2t1IjIbEamH+iWH4G5mPqoFwJQpU3YZHR0dSnA4Nc/BiQ6aP+QNUt+LyFXW2rOK0BZVXnmFYbhb3o1DRBqfvNuRPVKtVj+kPkxzBfi+f7KGmByCYc/zdqjX63/NGzAR/Q8Atsiji953Xa5KU0Z5AFjPzO/Okz1p0qStqtXqXwDgPTFtvHKaAKQ4E79hZg1u5jYiqgOAySV8m+BmZnaXY+ll78gKmLlWRDYRqVM006EdYOb9FACPiDTi6s7imcz844KMbwKApoWlB56I+Hn9EPG2IAiOdemKznxCRiaYyTEQ0dkA0OYeV6vVDyAR6RXS5tx4nmeKGi3x9olPe7XKAOC8HBDuZOaW+zpjxoy+tWvX3gkAh+f0u0htBM/z7lCgReQUa+31eYDr+7RzDhEPVwDUhVRXMm6vMrNmbgq1Wq1GIrLINXLSfAmHWZvy8XMNgoZhqAeVu0zdMVwU2/vqqSoIiDin6ERFW/0fAPA+h+k8BUBDWXOdh4X3f9xHB5S08DJshFTlHT5bA8C9iLhvAv2W8t1k5s0YEalL/AmHbr4CcBcAfM55eCMzfyWPWZH3RNQ6HwCgq/Ixv0mTJm1frVbvcwbaoXwR2Wk0ST9HRO5SAB4HADcJcQkzu1tiY+U1+xljfiUife6ez2MY5RbVJ1GDpeXm5vXLe09EFwOAa5A9pwAEicjqPGb+SR6z8X5PRP3MvKKXclJCfG8qAK8DwHaOoDZvqZcD2Ny8iEhXuq74uI0oAMMAUHUe7sfMA5t7sOMhn4g0zuEGc99QANRE1IRk3Hq+AvSeHxgYaJRRKu1mKdM/4xDUfKZr4LECoFEd11/u6RkQWXhVz/OOr9franHmtvieF5H7enkgpxyCA+j7/p2I2HQNo9azWyBh3j4iIsdaa9UYyWyO8k2TWkQWWGvVjB1zS0ny3K0rQO1jV0BpO8D3/d2Tcfc0215Enmw0GnOGhob04O1oSeUdgoXMfLrbIU1mHkJE9AAAzHLorlUAkvuilCUY3dmPeJ53ar1ef0yZ5zg2L3ieN7ter2v9T6t1UT6maU1MrVbbPwzDazzPm5nk0w0EY8xrIrK9Q3MxGmMOE5F7nYdvMrNWbBRqtVrtqDAM1ZHRBKma1McUiORo9dfs+J4voHw8Fg19q7+giY9tPM87ul6vqyWb24wx00TkBZcQEWfpGbA1IrYFPcMw3LdotYUx5nIROTdirCd9X+5oADrM25QDKotNSwYi/igIgm8WkKerMpne38DMW8YBkeTeuJKZNfee24hI8wVp6emsvpm2ve/78xGxUNgsYv44M38qd5BvmeSPiYhL29zqTQASWR59tJqZNRmR24hIa/cm5BK+RZDr2BCRBlkzo7wJOeuYeas82f39/dtVKhXNXrUMPgU6CIKr4pigboM3AOBdMTMtQbHWanops/X393+8UqkULX7KVT4W1KUmoWMso6Oju6xYsULTcpmNiL4KANe4BGEYkiZL3bC45vmOc4huYOaTuzE2xhwuIr/Om4EiM5/kQUTJ8aSKQcQjgiBwD/E2uokTJ24xYcIETd624pYi8qy1VvOMb+cFUraBhpwPGBwcbF5tac33/QsQMTVtFtOPd2JERC601nYURsTyjTFnich8d/wicpK19pY2APQfItI0Uqu2FxHvD4LgsCwAiOi2qDy26yIoC0LJ/OAiZtart6Ptuuuu7+/r61NT/2POy7ZUWjI3mPSW1BRV81UV7WgpsYRMIIqCUFJ5lcfMnBqWT0uOisih1trFrRWasvc0EnNI/NzdLy6tBiwAoFumdx0API+IzQ8AvFjUalPDCAB217AYImoMT/+udFlmk5PBEzWVEVGvaPeGup2ZtaC71ToqRDLqbG5l5i+4HR0LsDkL+hER63keNxoNm3cyd90zKS8ja1FD4QqOj4iT4xxEmkVIRFoY9cnE3t/HWvtUVwD0pe/7NyPiiYlxXMvMep00m1pWqmwYhrbXoaui4Dig+IkSmasBYF6bohlWY2qNEBHVEPGhhOOg/C5gZg0svmOb7/tfRMTmCe+0e5jZjXxnbwFnhjsOxOjdO7ZMzvf9oxBRHbO2VqlUPrx8+fLX0mYtr1AytT5YRA6z1raV0mzuJWGMuUxE0hyjrjHOIqWyyeKCWNfTmLnNvNxcIBCR5gc7kjkicpm1tmueMheA6MDLqgUq7DWOBzhTp07dptFoXK22Sgr/B5nZjf6kDqEQABEIHcWHEcfFIrIwryi51wBEDo6G8tK81rYbq5vswgAoE2PMsSLSVpDoMF/ked7Cer2utXnj1owxB4uIxgyyfplW6qYqBYBqpb/YQEQNQ7kFiK7CN3med329Xv99r1Bwfj+kRY5ppftqsr9eqVTmFQ2RxWMrDUAEgpqZegBO66Kk/pLkSa3ebjQaD5T9/RARqQOjxRta7qrf3YIu6jpfwcxarlOqbRQAsYSoMvuUHCBick23vZn4aFZKkyWq7E7Rt/6tH7eQIUupgaj6bKOv5DEBsJFAlJqhDOLVUcKka31gEUE9ASABhO5TXbZuwrXIWIrQLEbEJX19fbf36ndKPQUg1kDv5+Hh4VmI+JkIjPcW0S6DRm0Q/U3QEmZ+dQx8UruOCwBJSVFeXmv7tfhKv92/FRxV7BX91p/Qx9/r169/etWqVWt7rbTL7/8Qin+bCVtdYgAAAABJRU5ErkJggg==;" parent="1" vertex="1">
          <mxGeometry x="382" y="820" width="64" height="64" as="geometry" />
        </mxCell>
        <mxCell id="RmMoZj5zxQ0tkyEaWaPj-2" value="" style="shape=image;verticalLabelPosition=bottom;labelBackgroundColor=#ffffff;verticalAlign=top;aspect=fixed;imageAspect=0;image=data:image/png,iVBORw0KGgoAAAANSUhEUgAAAs8AAABcCAYAAACRH1hzAAAgAElEQVR4AexdZ1hURxf+flPUFBMTTZWiIrpLlY4iUgQFK6jYQkCx95JYkqjRWPKZxKiY2OIXNJYkmthjx8SCihpRYsCCUkQ6u3vvLr7fM3fb3WXLBRdYcHwenl13786cOeedM+8998yZ/zi1dYaz6s/xVSeIbBzoH9UBxQDFAMUAxcBzY8D7la6IceuDPk7+6OPkh1AHXwS8Kda06/lSZwS/44mA9m5ws6frD11/Kf+gGGgeGPiPU1snjjwTEu34qqPGqVEDNg8DUjtRO1EMUAxYKwa8XnZBRJcg+L7eDR6tO8G3XXf07ugD39e6adYa/zfFCHX0hXsrZ81n1joeKhedaxQDFAMEA/9RR50peW5GgLAPxYylm/FltCfENDpmXQuubXcMS/oW/5syAB7UNtZlm4a0B7W7xtYkguz9igs823SGR5vO3HuxnTIwQ/4f8n4PBL7loRNp7vVeDy4yTYlJM1qHGnI+0bY184nOCeucE/9xbtsJ6tQNp6ZM22gbhIQBiYh/2zqi337hm3CnpBhXF/S3PhL00kQclbLImBUENws6GfE785Eug+Yfs28yvC3YfpM7gcbAmF0gVpxl0eJ015Jw0BBjaUC7u4lW4qasGPsHaqO1TT6XjOjQzc6RS8uIcQtFVLdeCOzgjh6vumqJQNsgJA5LwaSAEHi+1EXzudjOiYtIE2JtrWOjclkniaF2oXZpCgz8hxBnNXluypxn98BU3JPlYEug8Ud3PuKp2Hb4DoqrGEgLs3Fm9Xj0bdMQwHFESNIJVD2rQcmOD+FjZKFoCoNxfTYQeRbZuyPCLRKDPBOQelHe4gigEIwJs6kjfLslYuW6w7hyuwDlpWewpKPqpq8eJMrbYxFOP1ZAfmU1Yu1VeG49DGkPFJobGf6bmtzNGN26Nu4NtqOHXYPX1KkvE2PX60uILg3KU492jPb1cghmrDyG24+qwDISFGedRVpSFPxs1fpzRKDfXPzw+008LpWCrS7FwwsHsDbCp243pvWwu1GZdcbvjIGLb4It2I2JbdUyK1/F7WfgZEUh9kS7QGQfgXXXpLi1KKxucuv0pdu+MPl0f+PeqhP6iXqjt4Mvgt7y4KLMwW97ctFn0h6Zg/9W/YMfBgaB5Dur+xDbOnLX9HrPG37tRJrP1d/TV109U31QfVAMNC0G9Mhz00V9zREbN6dpOPZIgtyflmCifwQG95mNPdfLkf3FQHhZeAHgQGkrQpRfNMJfbVoDGZwgDUWe1Xq088OyUy0vemoOYwZ1rdaJ5tUFscn7kfskB+fWr8CCIQkY6RuKXi+pcFJHEuXRbR5O5hUjP08Clk+ebbsj0mcgEoIHaf5GDvgvLpSwePB9IoI15E/Zr9F2NHI7wOg1gvsyM3ZeX0J0aVSeOrZjvC9XfPB1LtjCdKSOGIohPeIwd80FlLCPsDtaFcW1743lJ/NwK20NFg0ejfFxi7E7owI1pUfw0bt18Id1tLtxmfX8jX1ffJvJ4smWseihpxefQftQUvobZr7uADfHRbhQ/QDbQzo1CfF0s3MCIcDkNbC9G7cBkIyRpG+QHGeyIZBEl8kczJHcxY7BvUBynck15DckCk1ee7zaFeoUD8E60tML/Z0ehqh+mmROUBy2bBxqyLMy51m721n85iAs+Wo//rqai4LiKjByOWTl+UifGaqNbLTyx/hFB3DjfgUYaTkeXdiPr6P84c6frOauMRr1qkHJljHw5Nrqig835IG5/g3i1STFxgF+Iw+jKj8N48lnth5IWX4CmVmPUFIhg5ypQmHmMWwaFKSbdtHKD+MW7sf13DIwrByy0gLk/PUHNkZ7cPnDglIXBPTl5jAZh/MYPNyWhF4qoiN+Zxx+vS9FztfD4a9HfkxOtFfDMO/rs8h9IgUrKcG9c5l4JNdL27DzxKjpafjz+iNUSKQoy7mMA7OHakkWkfmL07h19wmqZArIJSW4f3YvVocZiLCZI89mbCpuPx0nKuXI+SKGh4WumPTDU8iz1iG+lQPcfZfi9N+FqJJU42nWaezdcBhZBZWouPcXtsXyZBIyLnN2F4QxYRPdO3gDsvPP4gsP3qNoPt5VJEpx7xouZhVDykhRcuccfhwbUYv8iNvFY2tmETIWDsbkDY/B8Mkzv03y3tYL037MB3P7e4x9TVdWIe0IuUaDQSN9mR07J3NnhEUuxd5jWcgvI/NQgvK8Ozg1O5qHBQfUSR59XXD6EIDnVgOw+Q6Lh2uHaH1A6yHY/i+D7GVaecStO+nI5hm6FY/YQvwUoYyMCprLdbA7seXkjbdRVpqN3YO9Te5bcO/xNbIZEl3uqiIAzhi+KgeGn0kAkJt+eqexsUqnlvDz4lZR2HBNivxtKejRyllJhF+dpEktC2gnQj+PKdh5j+EeoNTU1KCyshJSqQTPnilQuG0cojoFKKtwmJvvhrBQn88E+HB9XdH/6/odqg+qjxcZA5oNg2TjIL/aBpdnx0hwI/VjzIpNwNje8UgaMAnJ3dV5aiIkfvUPmMos7J+VgnFRE7E67Q4ksrvYEaZ+7Cbkmq7o1TUUgxJ24RGTh30JkYgR9UGMKBTR77kqF5aXRmF3PoNrc3vBzdYNI6buRkb2E1RUs6iRnccyByeIVIuX/NIWzIkZiaTYGVh/6DEUVRfxhas6FaQ7xq7NBlP9Dw7Nn4zxYcMxPmEzbrA8ImovRlj3PogRx2PjBSPRV0F9OSIgYiv+lT7F2Um94WHnizl7CiG5+g1G1CWabeuJqT88grzsOvZOT8H42ClYvjYdhQqezDauSPj8JqqLryBtUiJGBcRh2vxDeCAtw9nxgcqbHZXM7IVNmB45DIkxM7H+wH0wktvYGqqXS2mSPAuwqW0PLD4iAXtxBfqr0xBaDcSWbDkKN43knhR4DdyHctllbAwbgGnf3oFckoHUfnGYvy0HzN3vMJJLSxA+LtN2F4AxIQuwrTvm7C0Dc/8GrmUVoKy8DEW3zmHX+H7aNACVnmsepWP7tMmYEJ2C5ZtvoFL+GL8OVt6gcQ7HzgezduUhb+dEhNp1QuJ60+TZp88W3GeK8Hs8rw0is5B2hFzDG7/BvoSM3cYJoSN+xWNWioeHN2H56GSMixiJyaMXYF6Qm5Yk1lEegw5aCJ5tfbH4SDWY66kY9boyiuwpWo6MykL8MkDto/QXQEcEjTqEMsklrHRRBxMEzGWhdid65gg8ob8K5H01VEvseTZQjtkZ8Sv+AZv3I5Jf1srp8TrZXBeLb/6UIX9LCiIdgzA59QGYy19hpHMP+BtI6TGoQxL1JfnUz+vn7fsi9WoV8rZPQdh7PZRVM3hPxzzsnRDq2BP9fGO0fv6DWHwYlYCRvQbhg+AI9OvWC2723c37sVo60urF2BgNfq6yl2m/Uc+2LSUjbYdGjCkGrBYDepFn7WNKpVMtwc/9tXlpfCck7vgR0qtY3FgQpo3atArHV5dZSI7OR29bBwi5Rt2mqUfqyg0zj5AW1gU9RxxAsfQufk4cjLiUQyiTXcLKLlryzN+oRR5lXpQxOD+xhzKq/N5cnK1kkfVZlHbB4jl5nc13pgikyvGa6ks5LhcMXXgZVZU3sO/bM3hafgn/9VTffGgds9sr3eH/hhsCyF+77vBWE06yuDl/gotSGTJm99RG/PVkFr87B2cqy3B8jJeWoNiIMXtvBZgznyDcjpAsAxvZ2kRh/TUW1YfnIoQfCTcxdmE2dULohDOQqG1DxuG6HNeZMhyK785NBo48S45gTlsHeMbuQZnkGOa/5gDPfrvwVHICH7/hgPqOS9/uQjCmvsaULURtRmFPoRx5B1ZjTuQADPEejBlLz6FYXoTf4lSk1pCe7UKw+jwD2cmFCCO2sHFCnzFHUHQ3DSntyZwzQ57tAvDZ8SpI0pdpb0Y4pyqkHSHXaLEoMtaXkLG3icOOHAUqjn2MSB6G1bpVvgqXx6QtDOnZAJ49u8/Eb3ckkD64hIMb9yLjUREyPh2KQD7eeQuUp+tsHH8oQfaaOPjxPhfZmJnLhuSpZXe1np0QEroQqZ8vwth31QRd/R3vtbUycp6/IaF2alqbkfjpsQTnxnlBbOuBhYclKN48WvWkjteGzhhqf24JPy8iqSXXyFO2yYjp1gshhEC3nayJPLvZOnCl6MhmQI2f7+XC5UTHuochulsIR7jF7wnwY2bGw8daXfFjzG/w26Tva2OI6oTq5EXEAFfnWb1psHbk2Th59ozeiWL2HrYF83PsOiHhy1zI89OQ3MYBQq5RK13jVA1sGPSM+B+KZJlY290D8/dLIDs6j0uF8IxKQ7GaoBlavNqMxc/FLP5eqNxEw13PPsD2XjyZ9YioWh6RCQJpmIjq9qVpx74nlh6vwLNnLG4sDNfeaGgWASVxqlHvCFPk4cc+WvkImSxhc7E1SB09d4BIT2ZuXDU1UDAMGJn2j1U8g+KfTUhoZYQ823RCwn/vQZ7/I5L4Gy9NjF2oTcVvz8KpChmucKTfESHjT0FacQTzOLLoAB3y3H83SiXH8VE7B3BjkZzEwvaOyvf1GZee3dW2MIUx5TWmbSFuPxtnyM3YBN6jdvs+WHuZRdW+KUqyZQiHNs5IWJMDeUEaxrVxgLjDOBx4WICDw9U3O6bJs5vXWtxhSnBomDvv5khYOxbrS8DY3bp+jkyGwblxxksoCpfHtC0MzsFaeHZEUNg3uPIoB8c/XYDln+9FxgMJqm79hNmdefNJNRd9vBbh5INq3E+bir6Gorem5rIAu6txKPTVI3gT7jF5XNBA/zdunZcgQ5KDLcQvtI7Hj/eluDTNX3uDrfEvphd2c+RZ0Hzn8rIZPP7uA/R19ldWzeg0B0clDFcRyN3OCT3f9QLZDOgZnIpcaQ629RFx5JlU43C3d4bIVjX3zc13geNS35Aa86sG8WPEb+jrnv7fNKaofqh+XgQMaNI29HOehTjVp0bJ848a8mzuGrWS3QM3ItdItQ1CtCpkl/CFSwhWnWc0ERbz5Hk09hayuLU4nFtUPAlJY3OwmU/Q9YioWh6RrS+WGts0Z2ihbKPbl7odt86z8Ee+FOWlEkivrkOC3o55kY0jAroNwgdhw5HI/Q1CdDvtEwD14rW9p5ZQ1yLP3I3MfewZHqFKeSFpL6o/F29luTlDMuuROrXMpm4ciDyCbGrrhhm7noK5vBIxrUgUvBxVB2dr8r91yHO/nSiuPIr5r+uR5/qOy4gtTGFMOXbTthC9Ng0npHLcXMDL+7fphnn7ZWDPfGo8wk9IHXdTqZwX/mOOQfZMAbnejc6zGgXYytP49H2t/UU2yhxXef4upOil+whpR8g1Grub6EvI2N1cluIqw+BMki7J17bvAOHymLGFEDy/PAI770tx/eM+mptWkmu9I0uOkv8lwVdDxBzhF7gSF59UITt1HMLIzabmO+17k3PZoDy6djfUpvHPOmP02vtgc7dgLP/G1sYZ8cuzIGEUqHlWo8KQHDXPnqGGZcBU3cF3AbVvDIz1U18/P3btv5Dk7eT8PKn08c1VFsXbPkR0l0CQ6hrBDrNwvKIKGXNIqp0jd0gKKV3nF7oJdyuy8eOQXhzJ5m8OVPo6M37MgF0Mj60e+DHiNwy3r8UF/Z7qgmLgxcOAhjwbznk2HnkW8vheyDVq0Llz0bUi7I6qnSbi2TcNT2Q38Y27NxYclKJ67yRu4asreSaRsWuMDJdn8OojGyXP7lhwiAFz4mMuBUUtJ/dqaKE05Hhf6Yev/qxAydGFGNBtNk4WMri3cbTRR8Y6fagWCfH787n0mKwlUdpHsnoyq6/JXhFrvC6zIZnJY+U/+ekEqglg64XFRxkwR+ehp97j7brY1Kv3ZjyQ5WBr1GT89qQCJz9QR1p1I8/8cfMjz/UelyFbkDJZJjDGl8Ho+1b9kXpLrpvm0joG3xEytj3R+E1K6wh8k8FCcmQelx7j9ro/+qtvbrjXSHy8swjs35sxURyAAH7KQ6topN5kUfLDh7U2HAppR8g1mvGa6EskZOxt4vHjPQXKDs5FOH8MPMJTJ3l4v9PIqP5MAJ7dHBbhgqwcB4fyN3e6YsZPlWBOL0IfLoXGAW7vk829Evy7KRG9VZ/V6s/cXDYkj57dtW2StI0F2GgqbaNNHP6XSzY7DtXOe9XYvd7ujSnrc8Bc34QUtz4YPOEwyqrPYbVfH8R0D0ZPXn60tk/Di5s58mxovotbR+DrP0vx9PhyxL7lDpGtNz45pryBHNBehDBnf/i9PR3HK6uRsTgGfTr6wP8NMXq+44XIqPX4u/QBfk0MU0ac1fa0cYCg+c673tzYTH5vyF5G/IbJdiwlD23H4A0r1b3heUv10vR6UeU8O3G1nuuStiGy6Y7Er+6CqbyNA3MmIqX/ZKzZma23YVDINSolvDYevxcrUHLqW8zrn4DkgTOwfHhfLmLE5cvKSrlDAiKnnUd18Uks7e4CLxKZNJm2oRcNtvPF/F+KUVOaid1Tx2F8zEQs+eI08nU236mNQjbrZENe/Td2pyRhwpCZ+Dw+UhnBEuR4u2HMl7che/gLZnAlrxwRMuIAitg87Bugt+nLpOPsjg/W/gNG+gCnls3G5MgRSI7bhOsMf8NgN4xelQUpW4SMDUsxd8BIJEUnY/70xZjQSZVTqZK55vF5bJ8+BZP6p2D5lpu1N7JxsnTCqLUPoKjMxP8SE5EyZAaWDlGnnNTBpva9sfq8BOUPHqHi6UHMUaVskInPjzzzHQGfPItshI+Ln38uMrYImsAYXwbj753Rb+ZfqJIX4PSCDzG8xxDMWXsVFdI72Bysqoag0jN78TvMiByGpIGzkXrgHmTSbGwPU+Z7127feNqGm+NiXJTJlLmtJnFCcGu8HW2fxq8x3ZeAsds4ISLxCJ4opHh45DssH5WI5IiRSBk6E0uHqvGjnl/qV+PyaGVWX8t7FYLnVlH49poMkpt7sCSqH2LF/ZA8aTeyq6S4tbivKsWhM0atvQf20X4s8o/EIA/t34BObqprBMzlutidt2HwoZENg15h2/GYycU2/hMnjf27Y/a+SpT+kAgvGydEzb0C2c2vMdRIxNyUHs2RZx0/P2+Kxs8/Lb2Fn0ZFIbJLEAI7eCJyajqq5Pk4s2wmZg1JwoSE75ApkSLj8+GIFYfC57VuXP3mcLc5OPK4AiWn1tfy84Lmu0YHPCzU5zOVvQT5jfq0T39DyTDFQIvGQL03DHIOuZU/Uj49iFt5VWBllcjP+B3r+gVoHpEKvoYDmTMi477Hn9lPIWUVYEruI2PVaASQyGfrAdiSzeLR+uHwfikMi3f9iyq5HKy8BvLiY1jEq7ZhzhmK34jFkq2X8LCU4cq13Uu/wZHnyzMCauULijsMw7qDd1EqkYMpfYhrX45RyiPA8XoHrUe25BF+GcTL/7TzxccHSsFmf48xeo/gTS1wola+SProZ1y5WwqZXAF5VQkeX0/H5hgeCbfzRMKUHUi/UYBKmQIKSRkeXzuC5d6qR7gqmRX3ruPKP6VgWClKs88hzUAJNSKL2/sfYPMfuSiTKsd+dY1q7MRWQuzO2dQR/gP3oLCmBoWbx+gcNiOMPJNcbWHjMmd3pX5NYEyoo7PrgcSP9uP6/XIwjARPb53E5iG8coikBNbKc7hzv4R7tK6QlOLBub1YE+GrOy90+jNOID3Dd6CQfYgfBNXvNd6OFl/GrzHbl7mxc2Pqgsj+K/DzyWwUVTCoUbCoyr+Li6vHIkjvKYZSJuPyaGU2QJQE4tnLZRxSf72JggoWNQoZyu9n4vjyZESqc5rtgrDyHKvecaDzyhyZy5V6FDSX62J3rlTdHZQbLVXngqTUx2CzUzFCLScfL61i8f1tqeqE0a6YklaGip9SdOaXSd3x2jJPntXz/XfcuFeCyvJizs9viItAuIMvd3pgeKcABL4bgZRlR3H7cTWqqqtQ8TQf9zLT8eO4WO7YbVLr2b2VM3zaitA33oifJ3KZm+882YWO0eB1Any4wd9Zqn/aTosmVhQ7Bnx2C8O8UfJsXcZ3RuxHVyElJ7m5EDLoCK/2fgjv6K5TmaI+Mrt1+hQZsiocHWEsKthCQGBosWgEMLt1X47Myiyk+vJythuh3/pggf6mGWG9ifDcKBh5ZTT2PGKRszLWxA1X49pKeQJgV/i+3h3kFEGiB/XBJuSVI9Ad3LnPvV7ugr5de3J/fm+I4NPWFcFveXBHdTeK/qh/ocSUYoBioIExwCPPTjp1nq3Oyb1K6ppWQJL1M5aFBsHX3hk93vJBEO/QFPMyuyB+9DIsjh+Nsb2GIHHgXGw+UQh5wX7MeIu/SatxFybzcltAnkYkG+LXeyE+IBrD+s7H7mvleLQtSXtYSwMDulF0ScfQ9I65EfHc2Jjq0f8nPGH+wSZf4Rv/GkVGUn7U1pH783tdxFXIIP2STX98Ak2qZ5A0jR5tXblTA8k15Hvy20aRk85PqmeKAYqBBsaAqlRd7Zxna3RyJOVi2Y4bKGGe4VlNDZ4pHmJH7zpENO0CMOf7a3hYLIFcoQBT+hi3D2/DIh+xTgkwaxz7c8vUiGTDM+w75FayYMoeIOP72RhUlxSVBgb8c+uRymcdTrkR8dy4mHHFpO1PwN78pl45zI0hKyHCJJLc8x1PDSHWJ9Bqkt0Y8tA+LBBcoX7NOvwatUOzsUPziTzzQOXW1huRXXsirL1Lyye9vHHTRYIuEhQDFANNhQE3O0f4tesOr5dduPQNUj3DFIFuKjlpv3SOUAxQDDQ0BppV5LmhlUHbpxOOYoBigGKgNgZIJJnkNfd17anZAKguP2eMQPu93sL3kdDARrOJEtI5XXtOU508n0545NnKc56po6KOimKAYoBioEkw4NGmM0eayUmBfu1EXM1mQqaNEWiP1p00+c50kX6+RZrqj+qPYsD6MKBK2yA5z5Q8U4BaH0AtYhPb7hiW9C3+N2UAPCj5ahLyZRE7Uts1uu1IxJmkZ5Ayc6TcXMj7PbhqG73e9UasexiXvkGqaeincFB7t1BfSudgo89BOpescy7xyLOzdVfbMDNpxe/MR7pMW6ZVp+6vmd++UOBsG4SEAYmIf9v4zne/8E24U1KMqwv6WwfZFCCzSRsK2FxG8WOdDsqkXem8bvCFXGznhKC3PBDq6McdsU3Icx8nfwz26YvAtzzg3toZJMrs+1o3jkD7vylucJkoJuhcpRigGGhqDBhO22g9FD/ksshdNUBTZ1T8ZgJ2/C1F+anPENvGCg1n744It0gM8kxA6kU56k+elSd21To2gb2KNa6q0lG27pix5V8UV8hQ8+wZamQVKLx5FrtnDEUvY8f7WslC7x6YinuyHGwJNFYGyxEhSSdQ9awGJTs+rNfBC5YGtXmZzeBRAHkWWQw/ZmSxEhxY2ka0vZZld1I9I/htD3i+3AXer7gg+G1PkJQN8tqve2+OTBPi7GbvjID2bvB+pSu8X3bRVN+geGhZeKD2pPakGNDFAC/y7ASHV1XRSH3y3DoEi38rAnt/P2aR0/ysmQDY+WHZKfY5yLMDPDoEY6BHJEYtugCWuYhvQiIxyL0ngtQ3DbY98NlxBuyZ1RjdIxpxgQmYvegIHkqrcX2B8khxa9WRICJqK0KUXzTCraTEnCCZTWFSCHlW/94C+LFW21O5dJ0f1YcJfdg6IszZnzvohJBjEn0mZJockkIIdK/3enCRZnIISqRLEILeUh6QQnVqQqdqH0NfrZtDUPtQ+wjAgE6pOoPk2dYbKRuyIS29hG8CXHWVaueJUdPT8Of1R6iQSFGWcxkHZg/VORBD/OYgLPlqP/66mouC4iowcjlk5flInxmqPA6bHGu7/AQysx6hpEIGOVOFwsxj2DSId+QxGYiAvjjHbTHy44jAD0+AkZ3EwvZ6KQ4q8szsnwZfjZJFmL23AvLr/8Vge+EO1Kx+SPut/DF+0QHcuF8BRlqORxf24+sof81TAZF9X3ybyeLJppHwVMvz0kQclbKqI3zJEefDkPZAoc1r0byrQcmWMdzvBKUuCLVXKz+MW7gf13PLwLByyEoLkPPXH9gYzTtSXC2rsVcBMhObi9+ZiL3XH6OsWo4aVoLiO+n4KTkKvurjoFXkWXHvGi5mFUPKSFFy5xx+NHQ0uTn8CMWhsTHRz3V9CNWHVemD5Dj7tuvORZtJOgYhxhFdAhHq6MttGCQkmmweJNf0cfLjvo9y7QU3eysPqlCcWRXO6E2WcI5AdWWdutKJPDvqR57XjEHSiquorMzCjmgvvZrKrkj4/Caqi68gbVIiRgXEYdr8Q3ggLcPZ8YFKYmzjADfRStxkJLiR+jFmxSZgbO94JA2YhOTuXZSTWUVs5Je2YE7MSCTFzsD6Q4+hqLqIL9RpEjbC+mpa8twVU34sg/zm1xjSSrixzerHRoTEr/4BU5mF/bNSMC5qIlan3YFEdhc7wkRKHQohzzZd0atrKAYl7MIjJg/7EiIRI+qDGFEoot9zVdrWXoyw7n0QI47HxgtGoveC7NUdY9dmg6n+B4fmT8b4sOEYn7AZN1gemRe0mAmQmbTTOgRJIxLxQXAM4nuOwSebbqCKzcHWnp11MFbzKB3bp03GhOgULN98A5Xyx/h1sB6ZN0me64BDQeMTjhPqQKmuGhwDtg5chQyS1xz8jieX00yqaYR09EGv97zR1zWYK1VHCDR3CIqdE3eKIEnxaHDZ6HyiOqYYoBiwIgyYyHlWoCq/CFWKUpxKDtCQYbWTFL87B2cqy3B8DJ9Ui7noK3PmE4Srcn+V5LAEP/dXERn9wRt4pO7muAgXZQzOT+zBkTqhfXGymSQ/dVmAhUee3V72wsChm5BZziJ3zSB46Y/RxP/N6Ufc8SOkV7G4sSBMG2luFY6vLrOQHJ2P3iS6Kog8K8cuKAXClA6F2Ou9uThbySLrsyjthkP9SLgJnagxpn4VJDO/vVfH4/cyFtfm9lLi1oDMIrsQrD7PQHZyIcL4eeomxl4nHPLloe+p07dyDLjZOXHpGNKxVk0AACAASURBVCQlw+c1V448kwoaZHNgyPs+CHjTDWQzYGTXYPTtGsy9V89P+lqXdYVeS/FCMdASMKBDnnXTNuQoPLYXp3JkYP79DYtELjoLoGdUGopraqBgGDAy7R+reAbFP5uQoIq+miOHIkPEps1Y/FzM4u+FYRz5EdoXZxAT5KduBjNPnp89U6BGocAzsmmwOh9XUmdiwCt1mxjm9OMZvRPF7D1sC+YfQ94JCV/mQp6fhmSSh93E5FlkyF7sA2zvxZO5Acmz2ztx+GLzOdzJfYLysqfIz36IUkaOW4vDjZNnG2ckrMmBvCAN49S57ITgmMBPnXBo5WSpbnOhbpimbTcvfZEoMknLIKQ4qlsvrhwdKUvn+3o3jkRHufbkIs4kv5mUpSPXksg0+R21dfOyNbUXtRfFgGUwoEeeVY3yNgx6vjUCmy9WQP7wMBZ100aPlaTuPvYMj1A9/icpAKo/F294q8iDOXJomDyPxt5CVkN+hPbFgcIE+akbaMyTZ+bkCozwCEdMVz/48wlYHYiTOf2QsT81Sp5/VJHnCHxzlUXJ1rHGc55VMrkHbkSuyWobDhDZ+mKpsU2XBm929OzVfzdK2Rxs5lf0eC7ybEJmu2AsO1kJNvcovh4xDPGeURgWvhxnS7T4MYgxG/UNiEqHapuZwE+dcKhuj75SgmXlGCBR51AHZU4zyV0m+cwkAt3H0Q+ebTpzmwXJyYL9xL25knTkM5qqYZkFuG5rEu2T6otiwFow8B/HtqoDUto6wkFdXYFHnt3Jhqz2I7HjphRM1lYkvamMNojfn8+lE2SviNUQZUODMkcODRKbNrpkTGhfXP+2Xlh8lAFzdB56qjeM1WvxEkCedTYM1g/U5vQjKG3D1hufHJOBPfOpJl1GZISsunutxR2mCLujtDdCtexm644FhxgwJz5WpoXw9SeAPLt1/RzXGBkuzwjSpvsYkadW3/y+VO9NyvxSMn4rl+PWJxHavtok4KfHjObmyyDGWkfgmwwWkiPzEMLHiQn81AmHBsYhZKz0mvrNI6q3uuuNRI4JWVaTZ1KKTh1N9nqpC1ddg+Q6u9s7cycJEoJN8qHF/PlCcU5vDikGKAZeQAzobBg0Rp7JwuQp+hR/lSpQkDZBRTa6YfSqLEjZImRsWIq5A0YiKToZ86cvxoRO2p3X5sihQWKjR55FNsL6Ui6gnTBq7QMoKjPxv8REpAyZgaVDwrX5wgKMLLRUnW61jbovXkRes/qx6Y7Er+6CqbyNA3MmIqX/ZKzZma27YdDGCZFT01Elz8fZJdOQEjYMyXGbkMkY2KD32nj8XqxAyalvMa9/ApIHzsDy4frl9ZwRvyIb8uq/sTslCROGzMTn8ZFKHQogzyI7X8z/pRg1pZnYPXUcxsdMxJIvTiNfYUAeAfYQmZLZvjdWpUvA3P4FKwbFId6nH4aHfY7TT2tHntmL32FG5DAkDZyN1AP3IJNmY3tYdz3HZwo/dcFh/fBASSDVm6Ux4PWyC5duwW+XEGZSLYPkNZNcZq+Xu4CkZ/i/odqEbOPApW0Q8ky+I78l7dCIM8UnH0f0PcXDi4oBs2kbJPKsVI4zoqamo1L+ELsiuyk/s/NEwpQdSL9RgEqZAgpJGR5fO4Ll3toDOMySQyFkjMggoC+1Ed3e/wCb/8hFmVQOpvQhrq4ZgwDB0RIhh6Qo6zw3DnlWlqpL+fQgbuVVgZVVIj/jd6zrF6B7Q9DKHynLjuL242rIFQowlU+Rdz0dW2I99aqkOCMy7nv8mf0UUlYBpuQ+MlaNrqUfcYdhWHfwLkolSh1e+1KlQ4H2Er8RiyVbL+FhKQO5pAT30m9w5PnyjNqbT9V2M/5qWmbPzklI3ZeJh0VVYFgWkrJi5GdlYM8oVV+kvN7Kc7hzvwQShuC0FA/O7cWaCF9dHaqwbhI/dcCh8fGo5xR9pTpqWAyQSDIhvxGdA7mDTIi+yWckgkxynMM6BSC8UwDIcds+r3XjajsTAs1Fpe2cuDJ1QW976N1gNqzMFBNUvxQDFAPWjgGOPDurUzfUpeo0hJka0NoN2Fzkc+v0KTJkVTg6Qj/SSzHWXGxI5WyeWHVv5czlLpO6zSJSjs7eiSs9Rw46IZ8FdnBHdLde6P1+Dy6nuW/XntyGQEKoCcEm6Rzkd9T+VAcUAxQDFANKDOhEnjV1nil5pgvFc2HABfGjl2Fx/GiM7TUEiQPnYvOJQsgL9mPGW3SHPnU+dAFqEgzYOnAl53xf664k0206w6NNJy4KHd09BBFdgjhSTY7jDu8ciLBO/oh0CeZynptE3ufyQRRj1GYUAxQDDYcBHfKsKVVHnRYlz8+DAbsAzPn+Gh4WS5QpJKWPcfvwNizyEeulkDQcsKnToLqlGNBigOQqkyO0CXEmZej82ilzm71f7Yr+4lDu/yS9I7JLEHq+4wk3e2cuKk1znLU6pHiiuqAYoBhQY+A/jm0d4dTWCeRVs2HweYgT/S0l3hQDFAMUA1aFARJNJqQ5sL0bR5TVBNrzpc6I6kY2Coq5aDTJfya1ngPeFFuV/OoFi75S8kIxQDFgDRigkWe6yNNFkmKAYqCFYoBU1fB9vTsIeSaHmwR2cONIMok8EwJNSDP5nqRnkE2EEV0CuRxo8jtrWKCoDJQoUQxQDFgjBnTIM815piC1RpBSmSguKQbqjgFlpQ0XbtMfIcaEPPcThaBHW1cuJUNNoMmGQb923bnrSFUOsqGQ6rvu+qY6ozqjGHhxMEDJcwuNONFJ/OJMYmrrZmJrWw9M+OIkLq0ZDa8G9juEOJMjtIPe8uAizaRiRm8HH/R3C+UizD1e7VorAk0qb9Ac52aCpQbGD/UpFAcUA6YxoEOem3TDYNsgJAxIRPzbxqsx+IVvwp2SYlxd0B8eDe08rE2ehh6vNbcvwBZ0opue6FQ/VqAfQzXSG2DeqU8MDO8cwB18Qgg0+cy9tbKyRox7H/QT9eZSOEjaBolAk2sI4X5RcCJ+Zz7SZdD8Y/ZNNnlSbovUi4X8aqOuyxabL87o3XcNjlx6gJJKGaSl+fg3/Vcs8dSeUdEibW4x/Qn1py1Xz7zjuZ2gJs/iN5ORlpGDghIJdyjHkzuXcHjldAx+veGcq3tgKu7JcrAl0Bh4HRGSdAJVz2pQsuND+DQwCKxNnuY4kb1cErFu52U8KJZCzlajOOtP/DJ1APzqWDPWvC2ETmR6XXPCkaXwYzVjbiTyTIhwZNdgkOO0g9/xQh8nf44cEz2QlAwSgSaHo0S6BCHU0Y+LULcs4uyEsGl/gtVQY/WbZ5D8lKKM+tu7I8ItEoM8E5B6UY7mQZ7d8NHvMsivr8Vge6UvcxOvxi2WwZ8TfepcycgyfrWR1uXXk7E7+ymqGQWe1cghfZqHWwe3YrGfW53HTeaBuMNUHCtRoODQl5gTOQSjwkZj+gdTMNJE8K6p/Ii799fIZgqwK7wz7+a2M5I3FYHN/K8GC40nn4CD5FT8rDnpua7600SeHdsS8qyckMq7chYZnw3HiF4jMWPaZvz1gEH11Q0Y265hCLSgiWwrQpRfNMJVctZ1sHW53trkqYvs1nCtu+t8nCpQoCJzL9aMGIGEkFGYMWU9tk/QPwrcPKEVZIsGvpmyBp2+SDJYEj9Wo7dGIs9kAyA59IRsEiQHpJASdIRIc9FlVck6cuw2yX0mpwq2vM2BKvIsO4PVvpEY5KH+i8AAR5Eu2bLzw7JTbPMgz/aRWHdNAqb6Jta5kyCTM2I+zoREJkXOyliDp6Wawr7F/GojrMvi9rNxVsYic1kC4nwGYGzsXGw9/QSKkpNY7Fz3HH13//XIkT3A9l6deITU/FpkSp8N9Z31kWcHeHQIxkCPSIxadAEscxHfhERikHtPBLXR1WFz0nNd7adHnpXEWEmeZTg5RnsanLvrJ/irnMGtT/rCTU1U7Dwxanoa/rz+CBUSKcpyLuPA7KEI5kUWxa9FY3FqOv4tqAIrZyEpLcKDC98h5XWVklsPQ9oDhTo0wHutQcmWMfAkd4lCHrGRI5iXn0Bm1iOUVMggZ6pQmHkMmwYF6aR4iN+ZiL3XH6OsWo4aVoLiO+n4KTkKvmqZLSUP0VErf4xfdAA37leAkZbj0YX9+DrKX+vkBMpcV6M2+fW2Xpj7cykUuTsxob3xmy1L2IIbq0kcdsaEbSVgjs1HL7WN1fhtOwXHq4qxN1p5R29OHnH76ThRKUfOFzFaG9p0xaQfnkKetQ7xrXQdR5PbQT3O5vYqED8ik3Z3gEjA/HL3XYrTfxeiSlKNp1mnsXfDYWQVVKLi3l/YFuuj8XXmsEFsbdbX1SLPjggI+RqZZeXIXDoE/vr4rIPdSK4yIcOebTqD1G7u4+THEWMSURbbOXEEOkwVgSa5zaQcHUnZaJkYVZFn6UHMfMnMnDRDnoXYXdTKD+MW7sf13DIwrByy0gLk/PUHNkZ7aIi6WWwIsXWb0dj7KBMnDz7EjYVhcLMPwZrz93FqfybKdo7T5tGbmxcC1jgOz28OwpKv9uOvq7koKK4CI5dDVp6P9Jmh3LwQtC5z4+qMsMil2HssC/llZG2WoDzvDk7Njub5UdN2UpJnBunjvTQ6dXP6BJcYBucn9NB8ZtYnGB07i8y5vTTz3ZrmhVDyLAhj5rAhBIeaaxwR+OEJMLKTWKi/zgvUs6D5ZSMAPxYdl2ksqrGhIc+k1rNu5FmXPItsumPWngqwV9dgAPfIyBUJn99EdfEVpE1KxKiAOEybfwgPpGU4Oz5QBcJOGLX2PuQFZ7Fx5AiM8IvFyIhkfJwyFlGqx04im67o1TUUgxJ24RGTh30JkYgR9UGMKBTR77kqJ4W9GGHd+yBGHI+NF4xECVQLk/zSFsyJGYmk2BlYf+gxFFUX8YUrLxWkdQiSRiTig+AYxPccg0823UAVm4OtPdWPRCwkj40IiV/9A6YyC/tnpWBc1ESsTrsDiewudoQpDygQCZVZA1ZhRlUbt6lexR1m4lSVHH8TB29KdkvYwsYcDp0x9PPbkF1R4fZlL/Tt2gM9yCPszp8ho/oWvlXnuZmTx7YHFh+RgL24Av3V+G01EFuy5SjcNFK7eJkaM/3OLGEThh9zdneAkPnlNXAfymWXsTFsAKZ9ewdySQZS+8Vh/rYcMHe/w8jWqjlnDhs2AnydDnl2Qq++G3C9pAQZS+IQ9DzE2daRiyyTNAxyUqBPW1cEv+3JHXhCIs8iW0cuAk2izVGuyqO3SVSaHITSVD6iYfu1HHkWmbV7d4xdmw2m+h8cmj8Z48OGY3zCZtxgWWTMCqrDOijAt7ebiVMVf2LVyK3I/WsFYrstRcadrZgz+zyqjs1HTw5DAuaFkDWX+EfRStxkJLiR+jFmxSZgbO94JA2YhOTuXZS4EbIu2zghdMSveMxK8fDwJiwfnYxxESMxefQCzAsSnnJhiDyL35yN01IWl6YHqPT8fGMPf9M6o9DCyLMA/2N2rRSAQZ31ywR5NoExHT2bnV9C8CPE7nUdm/nruUNSSMoG/5AUQ5Fn8ogobvkdyJ/8hJQ2DhC/OwdnKstwfIz2TlBkI8bsvRVgznyCcDvSeVdM3VkOedY2JL9t2lELeoRkKkqgszApB+7muAgXZQzOT+TdmeoY3wGiV8fj9zIW1/TuOp9XHnHHj5BexeLGgjDt3XWrcHx1mYXk6Hz0Jo6uvjLrj8HK/u/e4xv8w5bilxj1DYl5IHKLaT1sYR6HjghKOgnZ4x+R1MYRQR8cQ7X0Lyx3doJHz+/woPIYPmpnRL5a8jghdMIZSGSXsLKL8lGhm+tyXGfKcChe+5SmYYmBEVmtDAPPowMh+DFvd2HziyPPkiOY09YBnrF7UCY5hvmvOcCz3y48lZzAx28Y0XctbAjwder5/vNsxH/4K+6VP8CxSX2fa/8GiSz3etebO0qblKIjqRlqAk0+J4SaRKI9X+qCnu94cdeRg1CCOni0UOJM7KUiz8+eoUah0P5JLuCLznqP+E2tKYbmlJ7dxe/NxdlKFlmfRWmfcL40EUelfPIsABuG+tL7zK3r58isPIvPnAZj660r2Ln+Iv5dOxR9xp9G9eWViLEXui4rMW1ujVOS5xL83N+MHzelwzZx2JGjQMWxjxGpDjjojUuIr9Alz47weisSszbcgqT8PJargmOCfIKqb3NjFyJTY10jjDybx1hd9CNsbKbIszCM1epHb36JBODH8uMy4vP1cKu3YVD5I+PkOVtDnj2j0lBcUwMFw4CRaf9YxTMo/tmEBNUjbK/us/Hb7WrUVD7A5bT1WNI/FH4csdYVUBCYTU1S9cLE3zXdZix+LmZ1IqBu78Thi83ncCf3CcrLniI/+yFKGTluLQ7XiZI+rzye0TtRzN7DtmD+3WwnJHyZC3l+GpJJbpBAmWsBTM+I1va9u/dXyGZK8LMOeXZG/JLrKLn+LRJU0TxL2EIIDj3CtiFfchKL3nLHnL1lYNlqpKf4wG/kYVTd3aSJLgqRR/z2LJyqkOHK7J5ws3FEyPhTkFYcwTz9x1ZWbiNrwwxfHiH4EWJ3IfNLhzz3341SyXHuZoprX6J9HCkEG2Z9nWq+15SVoUJRiQszemtvrOuJF5KvTEhxjFsfLjVDZOvAVc/o6xLMRaDJd+Tgk4guQVzUmWwU9Hm9G3dACsl35uu95bw3kvPsHowg9ZMEtb5NrSkk+mpmveBwwurlztYizw4wiw21PCZe3QM2ILeKYLIzhq38ByyTg63BneH/wR+QZG/EiFYOEDQvVH2YW+MsQZ45ws8wODfOU5taYWKMxjCoJM/PUMMyYBgFap49A/vgNNaF99Cs25YcuzE5muJzYeTZPMbqoh9h43x+8mxufgnBj+XHpctNjenC4PHchsmzMm1DfnUNBto7QEkO72PP8AhVmgVJtVD9uXjrlv1p7YUhgxdj867LyK+Wo/jMV/igg24urHvgRuSarLZBchh9sdTY5g6DRHQ09hayWmJsF4xlJyvB5h7F1yOGId4zCsPCl+NsCe8ajWN5PnmIfp4aJc8/miDPejLXw9EYM3ZjfS7uMAunqllc/0iZG6fs1xnDV+WAzd2M0WQBs5AthOBQ3HEBLlTfwabIGTj2+CxSl59H6eGPkPTpTVQfnqN8ZC5UHls3zNj1FAyJ9LQiT1rKUXVwdu186mZot8bCh7l+hOBHiN0Nk2fd+aVDnvvtRHHlUcx/XUVC1ORZKDaIzU35OpWPYs+nYdvpIshLLiM1TJsXa04v/O/d7By5kwE92nSGR5tOCHXwAzngRF2n2e/17lATaJLbTA5CIXnQpNoG+Q1XgeNtT831/Lab/3sLpW0IsLsnueFic7CZXyXKAHnmdGoKGwL8hWfkj3hSfRTzXnOA+I1gxPn0RKCtA3qMPAzp4/8hqU3d1mVza65g8mxiXXZzWYqrDIMzSe4WIM8sMhYPRqwoCjO+vQPpw58x/R0tjxDkE1R6NnfjYE1zwM3zv7jNFGFPFP8JQGekbH3KS6NVET4TGKuLfoSN/znJs4D5JQQ/lh9XHcgzSdlwautoMufZrcsCnC9ncPuzKC5aIn5/PpeWkL0iVpcom3ECXt2X4kIli8x5IZo7RmIod6+1uMMUYbcOQPQGYeuOBYcYMCc+VqY98PsSQp5fSsZv5XLc+iRC23ebBPz0mNESbPXkek556pu2ISKbQviEnz/G5vLezg+fHK2CPHsbEjXlDfXIs4VsIQiHrePx4/0KXDx4HkX7ZyKk4zycfXIJ6WfKkbt6gDL6Vwd5vHpvxgNZDrZGTcZvTypw8gN+6pIeZpuLzaxJTgH4EWR3AT6BT575CwYXzVCT5zpgg99GLV/Hl+elXpiz/S4kFTexPapu+CHEmRDlvq49OUJMiDFJyyBpGn0c/TT1mvkEmjs1UJVXTTYVknJ1pA40lxNtTba3iCx1IM+2Xlh8lAFzdJ4qZ5g3fwXYnUTGrjEyXJ6hzm92gMgYeeaNrRY2eN/xMcR/7xV/ABLJQcx8mSejjQO84n+DpOJXTH3JAYLmhaovc2uucPJsYl1uE48f7ylQdnAuwi2WtuEA0SsDkJopweNtiZr9AnUau9nSuLo65tuhsd9zwUySBjSThzG7nlh1ngVzZG5t3Krsq4+xuuhH2BifkzwLmF8iAfix/LiE2Z7bMEjIc+2cZ2WpumEBcZiYvA6n7kohydyED95Q3+l1w+hVWZCyRcjYsBRzB4xEUnQy5k9fjAmd1HllXfHBvDR8N3UiknvFIt4/DlNm7EcuU4nTSXp5yK+Nx+/FCpSc+hbz+icgeeAMLB+uX9bMGfErsiGv/hu7U5IwYchMfB4fqSQ//IVJ7Yj0iah9b6xKl4C5/QtWDIpDvE8/DA/7HKef1o48i55XHpvuSPzqLpjK2zgwZyJS+k/Gmp3ZBjcM6tQY1ZdZPZZm9urlswrXyhUovZiGlSNGYkzv0Vj5axHk6sizxWwhAIe2HlhwUIpnNU/xe5yYq8Iw9+cyPHtWhaMJqs2bdZHHvjdWn5eg/MEjVDw9iDk0ZcPij//N4sdGgN0F+ARB5FkQNgT4On157P0xfWsOZKWX8JW/q2Ad+rbrzuUyB73tweU4c/Wc3/aElyqvWZ9Ah3b00RBq75ddQE4bJGkehGyTNA9hC2Vzuq4O5Jnb6PkAispM/C8xESlDZmDpkHDlmiLE7na+mP9LMWpKM7F76jiMj5mIJV+cRr5CN+dZ8Dpo1M8TonISTMUvmKJXQcRr8C+okh7DR1wFKwHzQt2HmTVOMHm2MbEu2zghIvEIniikeHjkOywflYjkiJFIGToTS4eq9KyWx8Srbs6zEot+ff+HPNldbO3ZVYVh4WNvTpFnkZ0/Fv1eBkVBOlIThmF4wHDMWZGOYnkZTiX5qQKBAvyPEJ9pwgZ8PyG4VJ2pmxQh80sQfoTbnT+G532v2jCoR57JISlXclFYKoVcVoXi7Ms4smomhmqIs8qR2nkiYcoOpN8oQKVMAYWkDI+vHcFyb9XmQFtPJC0+iMy7TyFhFahhq1Fy9wqOLElEuH7umY0zIuO+x5/ZTyFlFWBK7iNj1WgE6Dl3cYdhWHfwLkolcjClD3HtyzHKa/QXJgICA0TUs3MSUvdl4mFRFRiWhaSsGPlZGdgzSr1jV71IPKc8pP9W/kj59CBu5VVxh83kZ/yOdf0ClI6ZfC9Q5uc1ctP83hEBPrPxw8FbKChnoJBLUXY/C39tmKqptGIxW5jDoY0zBn92C0zONoxVRW18+u1EgfQK1riqb/QcIFweR/gP3IPCmhoUbh7zXBu+msY2aoxb86t5/JCyVCb9j4D5JYg82wjAhhBfZ1CecKw6UwF5TprJso4EJ2RzIMlhJmkX5OhtUnKOHLNN8pnJH6mwYYhA8w9AIdcT0k0qb7TMqDPBdF3IswPc3v8Am//IRZlUuaZcXaNaU4TYndjljVgs2XoJD0sZyCUluJd+gyPPl2eo1hQh2DBLWpwQPv0vMMW7MUGvlq5n7F6USc9jaUdVYMvcvND0ZXqNE06eyaEjRtZlrq8uiOy/Aj+fzEZRBYMaBYuq/Lu4uHqsJmpszg8aIs8iuyAsPVGFqlOL0Ve9j0rg2JsVeSa592/HYdWOS6oDxyQovXsJ++fEoad63EIxJlA/pu0h/JAUc3oWtuYKwI9FxlW39dBg5Nm04urWAW2L6qslYsCt+3JkVmYh1Ze/IZTauiXa2lrGRFIvSDUNEmkmxJfkN5OUjQGe4RypJpFkPoHu+Y6nwagyV6JOLyhhLWNsCXK4dfoUGbIqHB1BK/C0BHvSMdB1zRAGDEaeDV1IP6MAetExIH69F+IDojGs73zsvlaOR9uSdA4EetH1Q8ffMD6CkOTgtz24iDOJHBOCHNDejdv8R4g0KVFHdE/SMUhpOvI9iUqrNw9SuzSMXZR6dUH86GVYHD8aY3sNQeLAudh8ohDygv2Y8ZY6xbEh+6dtU3xTDDQFBgzWeW4KQWifdAJYOwY8w75DbiULpuwBMr6fjUGNcEy8teuEytfw85akXYQ5+6Nv157cqYCEHAeRFI1XXODXrjt6vdcDfm+IuPeRLsFcDWd+qga1UQPayC4Ac76/hofFEsgVCjClj3H78DYs8hE/V3UJarMGtJkmbYX2QXFWfwz8x7GtA1dpg79hkCq0/gqluqO6oxigGLAEBkjkmJBjr5dduGoahBiTms29O/pwZJrkLpMIM8mDJmXoyOEofbsGg9R+tkT/tA2KY4oBigGKAcMYoGkb9C6ULrQUAxQDVogBQoJD3vfhNgeS3GaSqkFKzCnTM4K5UnUkB5rkP/d4VXkkN1eSzgrHQhdgwwsw1QvVC8VA88QAJc90oaHEiWKAYsBKMUDIMCHOpLoGiS6THGdCov3fEHHkmeQ4k0NQWmbJuea5qFIyRO1GMdDyMUDJs5UumnTytfzJR21MbSwEAyR9w/uVrhyBjnLtyR2z7ddOBHK8NsmFJukbNMeZYkkIlug1FCdWgwFbEUakpGLntEHwaIY8jJLnZmg0qwE/1R2N2FIMNA4GbJV1nkmaRlS3Xlx+MyHP5GRBWlWDEiK6JlAMWCUG2gYhYUAi4t82UHnGUN37ZrSeGCfPtu5ImLEXmffKwUgr8OjCXqwIqsf59C21nWZk5KacVN7dpuGXOxLkfR1n5O7SEb7dErFy3WFcuV2A8tIzWKIu9k903DYCH607h9wnEjCSMjz8cx9W9fbUHq8uyA6OCPSbix9+v4nHpVKw1aV4eOEA1kb46LZjH4l11+TQ/SfDyTGG67V6eyzC6ccKyK+sRmw9j541rx9hi4Kl2mlKrOj03VL9hgXG5f+mmCtPR3KfabpG7fnh7v01spkC7ArvzLux6YzkTUVgM/+Lwby56uWSiHU7L6sOn6hGcdaf+GXqAPhZax1sC+BHZ54J8p+1ddwkbbzIY7eUnRpZhyYPSRFKnhtZZqHYNkKenRCe/AdK2UKkfz4dKTHTkXqsEPLiP7DQi1SKzQAAF7xJREFUqS47uVtqO1biTCw1oRqgHfe3+mHOskO4Wy6HQq7AI4Pk2QWxyfuR+yQH59avwIIhCRjpG4pe6uNnbT0wZUc+5EXpSB0xFPE9P8TqPffAlJ/H566qUyyFyG7fG8tP5uFW2hosGjwa4+MWY3dGBWpKj+Cjd3l3xK0HYdtdGW6sGInBHpEYxP2FI7xdbcx7dJuHk3nFyM+TgK0HeRamH/M4s1Q7Qh1G41zXUv2GpcblAO9XXGjE2cjcF0qe3V3n41SBAhWZe7FmxAgkhIzCjCnrsX1CX+0psEb6aJx5oD//LYefppFffzx1+f+LPPa66MnUtY2vw+cnz40vs9C5YZg8t4pG6t8sSndP0hyfKe4wBUeessheGiXcsbTUdqzKoZqaLE31nTOGfHYVeef34suBk/DDHdYgefYO3oDs/LP4wsOVFyHiydxuGv6oZJE5L0QbIX4tEb8UsMhZGSsch+QI3daddK73DN2KR2whforgRafajMXPTyQ4PtKIPCq7i9vFY2tmETIWDsbkDY/B1Jk8C9OP+UlsqXZ4OrcGbLdUv2GpcVmDjaxYBkHk2dYLc38uhSJ3p9lj0c3Pw0aaPy8yfl7ksVtqrllSh3aeGDU9DX9ef4QKiRRlOZdxYPZQ7aFhrYch7YFC9yEu978alGwZA08yJlXkuab4Ie4XVoORVaHoxjGkDgjQrtWWlNlSelS1Y5A8izsuxAWZDKcSPRE98QQKC87jC/ceWHREBuaPjxEi8JFWS23HapyphcFg0XHZOioPCWgVi+9vGyDPtu6Ys7cMzP0buJZVgLLyMhTdOodd4/tpHpmKOy7ABRmDc8ke2gMHbH2w5AQD5uBsBNZ7/I4IGnUIZZJLWOnCiyq3m4lTkmIcHBOCkHadtX3y+7HzwaxdecjbORGhdp2QuL4+5NkBInP64fdp6r2l2jHVRyN/11L9hqXGZdF52si2bQzZhZBncYeZOFUlx98Lw7Q35lauixcZPy/y2C01ZyynQ1ckfH4T1cVXkDYpEaMC4jBt/iE8kJbh7PhA1Xzqil5dQzEoYRceMXnYlxCJGFEfxIhCEf2eq3JtVZFn+fU0LB4yGkn9pmLd748gr0zHss7KddlyMlv+BtcgeXb3+Qb/ME+wJ8oV8SuyIZc/wA8h3ZCytQTs9bUY3EqYIC21HUuB+YVoxxh5bjMKewrlyDuwGnMiB2CI92DMWHoOxfIi/BanIsutorHxJouqv9bhw44uENs4w9cpHt9dkoM5LvwmTl/Pnq6zcfyhBNlr4uDHWzDdui7Aiew8FJVKUfOMRVnWSWwd0Rtemmuc0GfMERTdTUNKe5Lu8RzkWd2mMf2ovxf6aql2hPbXgNe1VL9hqXHp45n+X3c9EkKe3Xt8g3/YUvwSw3vy1ICYtoSNXmT8vMhjtwR2SBuW0qH43Tk4U1mG42O8eAEmMWbvrQBz5hOE22nnY13TNtycPsElRoZz45RtW0pmS+mQ3w5Hnh3aOoD7Ux03rBW4M0T2YoQ5ucPDpvNzkOeW1Q5fgfS9dqIY1IURUiduPxtnZAzOT/DWTkD7Plh7mUXVvikaUuvruxiHs8pR80wBOauAorIUFUwNKtKSeaTWjAy8RdHHaxFOPqjG/bSp6Nva2O+c4OM4EB9tuI5K5j52Rio3DIo7jMOBhwU4OFztNCh5Nmhznr7r8z31P8ZwST8XgidB5Nn7K2QzJfhZhzw7I37JdZRc/xYJRn1D09nAUvNCiA6t7ZoXeeyWsoWldOgZlYbimhooGAaMTPvHKp5B8c8mJPCCq3Ulz6I2ifjlKYu/F/bhItiWktlSOuS3oxd57sjlnmpD5bzqGrYez5G20bLa4SuQvjezmBghz6LXpuGEVI6bC0J5j027Yd5+Gdgzn+rcvZIIr9/7wYjq5IMA0TJclUlxYYo/73dmZODInCP8Alfi4pMqZKeOQxhvghu1Yeuh2P6vHMXfjeRytPzHHIOMkHg9h/GsRgG28jQ+fZ+3+VAogTSmH6G/V19nqXbU7TXhK/U/QvBMrzE2b908/4vbTBH2RPGjyiT48xTs1TUYYO8AcYdZOFXN4vpHfP/jjOGrcsDmbsZoKyTPlpoXxvRmzZ+/yGO3lF0spUPP6J0oZu9jz/AIVSoGScdQ/bl4w5u3drgHbkSuLAdbAg1s8DdUbaPNaOwtZHFrcTi3vltKZkvpkN/OfxzbOsCxrSP35/CqkjyLWvXjNgyW7Jqo3TDYfhIOFxvaMOiEkNAF2Pj5Iox9l5c/ShTYrNuhixMfKPV+b4zUteqP1FtyVB+eq82hbx2D77LkKNmeqDMBNX2/FIpP9hdB8fhnTOugT1RN4NDGAW7vT8bhPAn+3ZSI3rzHSpq2eRNe89lLcfghR0ue3V73R3+1k+BeI/HxziKwf2/GRHEAAnglsEQ2puXR9GFMPxp5LNVOM8Jzs/YbJuxVp3E1I3tpsGodMovfmY90KYuMmUHaG2y7nlh1ngVzZC56kj07dn745GgV5NnbkPi62pdYN3mu23pqHbbQ+LnnxQidO4Y31ddFrxbSofj9+UivYpG9ItbwOs2Tyd1rLe4wRditcyOrwqYA8mzNmNchzx3V5NnGCeHjTqCUzce5JVOR0m8q1h/J50rVLXLWI8ith2D7v2RXpQIPvxqqV8u3GbfDA4DFHMCL1ObL3oh2j8Qg7ynYlyNH4Y+zMNQjAjEdVZsFbJzRb+ZfqJIX4PSCDzG8xxDMWXsVFdI72BzcVeMoenQMx/DQDzBv1ib88Xc5FCVX8F04bwOhWqcmcdgZo9beA/toPxb5q0vQKV8HdHJTLbBdkDBhHVYnJmNc2DAkDZqN9b/kQMpq0zZq48BE2oZJeRwgMqsflYOxVDtqPTWL12bsN0zaqw7jahZ2slKCZuePRb+XQVGQjtSEYRgeMBxzVqSjWF6GU0l+GkLt5bMK18oVKL2YhpUjRmJM79FY+WsR5FYaeSY35ILX5RaHnxd57JaaZ5bSYTeMXpUFKVuEjA1LMXfASCRFJ2P+9MWY0EmPH742Hr8XK1By6lvM65+A5IEzsHy4qhSkEPJsxZj/D8l1VkeeteSZVANQHpJy/UElGFkl8i/swxfBvPQL9eS09cLkjXdQXpqN3YN5+aua75tpO2r56auGyNYmj8Yntbvft/hX/7wR1ODJJmUKBNeWXQ8kfrQf1++Xg2EkeHrrJDYPCeLdgDljxOp/Iat8irxr6fht1XyM6ch/FMvr3xQO7YKw8hxroGwOuEhUMIlE2Xpi3JKjuJ79BFUMScN4gnvn9uPbQT1N5FabIM+m5CGbN4Toh2DPUu00NxxT/1OveVeXOdqSr3V7Ow6rdlxSHX4iQendS9g/Jw49dZ46OSLAZzZ+OHgLBeUMFHIpyu5n4a8NUxGl8xSJ52eaeh4JnRdNLWdD9P8ij91S+rSUDu08kTBlB9JvFKBSpoBCUobH145gubd+eoYzIuO+x5/ZTyFlFWBK7iNj1WgEcE9/ArHiLAtm32RtBFsvbYPzUZaS2VI6VLXzHwd1ykZbRzioNgy2ZKdKx2ZFC4GFwUxtS21LMUAxQDFAMUAxQDHQ0BhQpW2Q6LMDJc+UzNFoF8UAxQDFAMUAxQDFAMUAxYAJDKhK1Tlypep00jZM/KihGT1tn941UgxQDFAMUAxQDFAMUAxQDFgjBnjk2RGUPFOQWiNIqUwUlxQDFAMUAxQDFAMUA9aCAV6dZwdKnmm0nT6moRigGKAYoBigGKAYoBigGDCBAV6pOprzbC13NFQOendNMUAxQDFAMUAxQDFAMWCdGOClbRDyrDokxQTbpoa0TkNSu1C7UAxQDFAMUAxQDFAMNAsM2IowIiUVO6cN4pWnbT6201TbIPWeac5z8zFcs5gc9CaMPvaiGKAYoBigGKAYeDEx0DYICQMSEf+2+hRPHscydEhKM8KJhjyTg1IMkWfvbtPwyx0J8r6OM3J34AjfbolYue4wrtwuQHnpGSzpyFNU2wh8tO4ccp9IwEjK8PDPfVjV21NzypMwEuiIQL+5+OH3m3hcKgVbXYqHFw5gbYSPbjv2kVh3Tf9kDhlOjuluELjeHotw+rEC8iurEVvPovjm9cMDiwlgWKodYfoUJtNztaUqbJ55rxyMtAKPLuzFiiADh+yY0AnXf0ttx9y4X+jvLTjf6+gTDGOeymNYL2o/Yl36cff+GtlMAXaF8w9U6ozkTUVgM/+LwfYO8Oj1PR4yOdgSyD/UwcqP5yY+wVL+sDn6lxd57JayVyPr0D0wFfdk+vNM5TeEkudGltm0r1P7PAdwJwySqLN+5Nn9rX6Ys+wQ7pbLoZAr8MggeXZBbPJ+5D7Jwbn1K7BgSAJG+oai10uqDmw9MGVHPuRF6UgdMRTxPT/E6j33wJSfx+eufKelFcig4Pa9sfxkHm6lrcGiwaMxPm4xdmdUoKb0CD56l0fUWw/Ctrsy3FgxEoM91McwhyO8nd6RkTYO8Og2DyfzipGfJwFbD/IsTD9mxkVOmhOkZ/PtGNSbpSZcndtxQnjyHyhlC5H++XSkxExH6rFC7nj3hU61bWFc9pbaTnOzZyPLa8n5XgefYBSHVB6DwQeNvqxMPy2XPFvKHzbyfK7z+mFIvhd57Ib0UZ/PGl+Hz0+eG19mjV8zg1sj5NkZQz67irzze/HlwEn44Q5rkDx7B29Adv5ZfOHhati5tpuGPypZZM4L0UaIX0vELwUsclbGwt2McPxBiFt30rneM3QrHrGF+CmCF11oMxY/P5Hg+Egj8qj6E7eLx9bMImQsHIzJGx6DqTN5FqYfvvyG31uqnfpMpAb8TatopP7NonT3JASRYzhtHCDuMAVHnrLIXhqlY0fDelHJ1lLbqQPuTeqnBbdjsfku0CeY0zOVx7S/sCb9tFjybCl/2Bz9xos8dkvZy5I6tPPEqOlp+PP6I1RIpCjLuYwDs4ciWLXei1oPQ9oDBWr/q0HJljHwJGNSRZ5rih/ifmE1GFkVim4cQ+qAAC1HsKTMltKjqh3ueG5DkWeRrSPE5KJWsfj+tgHybOuOOXvLwNy/gWtZBSgrL0PRrXPYNb4f/NSEqeMCXJAxOJfsoWyLtGfrgyUnGDAHZyOw3oNxRNCoQyiTXMJKF14ks91MnJIU4+CYEIS066ztk9+PnQ9m7cpD3s6JCLXrhMT19SHPZBxm9MPv09R7S7Vjqo9G/k7ccSEuyGQ4leiJ6IknUFhwHl+498CiIzIwf3yMEPUEMyNXS23HHFGj3+sTteeY70J8ghkc1rYHlae2Tvg2a1r9tFTybCl/aNp2fDtaz/sXeeyWspfldOiKhM9vorr4CtImJWJUQBymzT+EB9IynB0fqAqUdkWvrqEYlLALj5g87EuIRIyoD2JEoYh+z1XJzVTkWX49DYuHjEZSv6lY9/sjyCvTsayzktdZTmbLY5nLeTZIntULijHy3GYU9hTKkXdgNeZEDsAQ78GYsfQciuVF+C1ORZZbRWPjTRZVf63Dhx1dILZxhq9TPL67JAdzXDiJ0gePp+tsHH8oQfaaOPip5bRxgFvXBTiRnYeiUilqnrEoyzqJrSN6w0tzjRP6jDmCortpSGlP0j2egzyr2zSmH/X3Ql8t1Y7Q/hrwOnefb/AP8wR7olwRvyIbcvkD/BDSDSlbS8BeX4vBrYQBuaW2o49n+n/TeKj/fBfiE0z3bcg2VB7TOmtq/Qgmz4YCYwBqcjdjdGvTYzSEi4b+zFL+sKHlbIj2X+SxW0qfltKh+N05OFNZhuNjvHgBSjFm760Ac+YThNtp505d0zbcnD7BJUaGc+OUbVtKZkvpkN+Ops6zfs6z5iIjpE7cfjbOyBicn+CtVaB9H6y9zKJq3xQNqfX1XYzDWeWoeaaAnFVAUVmKCqYGFWnJPFKrVbamXyPkzsdrEU4+qMb9tKnoa9TBOcHHcSA+2nAdlcx97IxUbhgUdxiHAw8LcHC42uiUPJvTd32+1wK+M0T2YoQ5ucPDpvNzkOeW1U59dPqi/uZ55ruuzgz7BN1rzPshKo9pHVmDfgSTZyYPv46NwdAe0aq/GMzfngfW6snz8/nDumLeGq631JpiDWNpKhkspUPPqDQU19RAwTBgZNo/VvEMin82IYEXHKsreRa1ScQvT1n8vbAPF8G2lMwNoXMjOc88B2mEPItem4YTUjluLgjV5jPbdMO8/TKwZz7VufsgEV6/94MR1ckHAaJluCqT4sIUf97veP0ZIc0iG0f4Ba7ExSdVyE4dhzCegYwqpvVQbP9XjuLvRnI5Nv5jjkFGSLyewZ/VKMBWnsan7/M2HxqVQ09WY/oR+nv1dZZqR91eE75qH7XwqmvYejxH2kbLascoXpvQZtYn0/PPd4Nj0vMJBq8xaAcqj2ldWY9+3Dz/i9tMEfZE8fbDcDfvT8FeXYMBzbTahqX8qmk76q1vBudC41/zIo/dUvaylA49o3eimL2PPcMjVKkYJB1D9efiDW8eZtwDNyK3LtU22ozG3kIWtxaHc/zQUjJbSof8dupPnlv1R+otOaoPz9XmsLaOwXf/b+/sYuKoojjuM2xsatL2wUZNaYAaY/iQQgIESCVSGkBbpKQrWhUB2wpthfJRCTWpsbTbB0xKrSgPtTGaJthsSgImak1YP0LQBlMbiBCgtFA+FhDCsrNr/maX3Z1h2B12k8HOtP+nIbvLnXP/93fPnHvnzJnbDlgvF68Q0HfCjZn40DwB571vcWyrPFCNxK7Melz6uAFvPSPJY/YMRNy2cnSMLmKgpRgvSm4L+NqWDJjvs42F+HJQDJ7jtqQgzzvI7mM2Pvh6AsKtVhyJTUXqinJ1yvb4zrFm0KtWO/+/w/L10Z+2Sp89nut+YND6zRHxgcEn30PHlL8HBhX00XU7OhovpbF8QN+pMd/98ivzCeJvFDh0pYSp4H/Ec0nYoD2+zY3Q9JFoKGM09uk6WGwCeirTxA0aQwZMPwuwd9YgI1ynpepC8oeB9fGrs0xDzf3mUe67WmOjkoax2+pgWRDQ3/iK/zhPYm/8zib02SdwdcVC1sOmv1J1suA5RiWb14PnwMHzE4nIic9GfmIF2gYduP9VFfa/sBsvR3iSvcOikFv5KxYc4/ip/h0YkwpQ3fQH/rH1oTX9OV/1jaSILBgz30ZtVQu+vzUHp/V3fJ4leYDQK/SGAlwecCWhOXHnk/2ymtI78EbTEIS7ZjSkeEvQLR/3Rsd5HOSzKDp8AeeLS1H20gGU5J/AxWuDsAli2sZqARXSNhTt2Y6YNfXxAKJWO16ddHGMRFbZD5gRxtB1+igO5R7Fxc4xd6m6hijZwkhRHx23o4tx0uoFVq35HoJPUOSQ9sRoTR+l+WVIQUP7LJzjFnxWdADGVCOqGy2YcsziRkmy+3qhzzrPIfhDJX10+d2j3He1/LRaGj6Pg6bbsAkT6Pn0I9TsfR0lOaWoO34Kh6Nl1/fN76J9ygnrjWbU5hWhdN/7OGPcs1xNI5jgOUwtm9XSUGwnYPAcn9yMAfn7RvAvJluWUyDcgaghCcUnzegdnoPdvojpv35Ea0GaJPCNwmvnB7A0P43RmxZcN9XhzQjprTTRkJjwnSi/1Ie5mX5cfVWSR+2a6IY0nOsSVlc9Adw7Ce7yKOEJKDv9HXr7J7Fgd6VhTGKoy4zm/AyF3GqF4FnJHld95mD0cdmuVjt6c3iewua9I/OwL81j7Lc2nE2XpF94+7OGPt6XAuiuHW//ePQtpFcvXiXzX6qTWvM9FJ+gxCHtUfZjD0IfKS9+/o57qhCmK90YmbLBISxi5u9umKsLkeG5a6nP4Fl8Scqa/tCPJkHPP63+b7DXFK3arwW71NLQkICiiiuw/DmO+SUnnIuzuHezE2cS5e/viEJ24Rf4pX8aNsEJu3UYPaaDSHVV3AoqeNYu8wGDZ91PNC2AShtCD5yoGTUjA2SADJABMkAGNMzAY9s3RbjfLhiw2oaGjWeAH2DnjmNGp0MGyAAZIANkgAyQgXVhgDvPBGtdwOLChgsbMkAGyAAZIANk4GFkgMEzg2cGz2SADJABMkAGyAAZIANBMsDgOUihHsaVE/vEHQEyQAbIABkgA2SADITGAINnBs9caZIBMkAGyAAZIANkgAwEycB/etUHnyGcBmoAAAAASUVORK5CYII=;" vertex="1" parent="1">
          <mxGeometry x="280" y="560" width="719" height="92" as="geometry" />
        </mxCell>
        <mxCell id="RmMoZj5zxQ0tkyEaWaPj-4" value="&lt;font face=&quot;Comic Sans MS&quot; style=&quot;font-size: 14px&quot;&gt;&lt;b&gt;Container&lt;/b&gt;&lt;/font&gt;" style="text;html=1;resizable=0;autosize=1;align=center;verticalAlign=middle;points=[];fillColor=none;strokeColor=none;rounded=0;" vertex="1" parent="1">
          <mxGeometry x="372" y="1030" width="80" height="20" as="geometry" />
        </mxCell>
        <mxCell id="RmMoZj5zxQ0tkyEaWaPj-6" value="" style="rounded=0;whiteSpace=wrap;html=1;strokeColor=#000000;strokeWidth=1;" vertex="1" parent="1">
          <mxGeometry x="890" y="750" width="340" height="410" as="geometry" />
        </mxCell>
        <mxCell id="RmMoZj5zxQ0tkyEaWaPj-7" value="&lt;font face=&quot;Comic Sans MS&quot;&gt;&lt;b&gt;Work1 192.168.2.132/24&lt;/b&gt;&lt;br&gt;&lt;b&gt;PodCirdr 172.16.2.0/24&lt;/b&gt;&lt;br&gt;&lt;/font&gt;" style="text;html=1;resizable=0;autosize=1;align=center;verticalAlign=middle;points=[];fillColor=none;strokeColor=none;rounded=0;" vertex="1" parent="1">
          <mxGeometry x="1246" y="1110" width="170" height="40" as="geometry" />
        </mxCell>
        <mxCell id="RmMoZj5zxQ0tkyEaWaPj-8" value="&lt;div&gt;&lt;b style=&quot;font-family: &amp;#34;comic sans ms&amp;#34;&quot;&gt;172.16.123.3&lt;/b&gt;&lt;/div&gt;" style="rounded=0;whiteSpace=wrap;html=1;fillColor=#d5e8d4;strokeColor=#82b366;align=center;labelPosition=center;verticalLabelPosition=bottom;verticalAlign=top;" vertex="1" parent="1">
          <mxGeometry x="978" y="980" width="158" height="90" as="geometry" />
        </mxCell>
        <mxCell id="RmMoZj5zxQ0tkyEaWaPj-9" style="edgeStyle=none;rounded=0;orthogonalLoop=1;jettySize=auto;html=1;exitX=0;exitY=0.5;exitDx=0;exitDy=0;entryX=1;entryY=0.5;entryDx=0;entryDy=0;startArrow=oval;startFill=1;endArrow=oval;endFill=1;" edge="1" parent="1" source="RmMoZj5zxQ0tkyEaWaPj-10" target="RmMoZj5zxQ0tkyEaWaPj-12">
          <mxGeometry relative="1" as="geometry" />
        </mxCell>
        <mxCell id="RmMoZj5zxQ0tkyEaWaPj-10" value="&lt;b&gt;&lt;font face=&quot;Comic Sans MS&quot;&gt;etho&lt;/font&gt;&lt;/b&gt;" style="rounded=0;whiteSpace=wrap;html=1;fillColor=#dae8fc;strokeColor=#6c8ebf;direction=south;" vertex="1" parent="1">
          <mxGeometry x="1030" y="980" width="60" height="30" as="geometry" />
        </mxCell>
        <mxCell id="RmMoZj5zxQ0tkyEaWaPj-11" value="&lt;b&gt;&lt;font face=&quot;Comic Sans MS&quot;&gt;ens33&lt;/font&gt;&lt;/b&gt;" style="rounded=0;whiteSpace=wrap;html=1;fillColor=#dae8fc;strokeColor=#6c8ebf;direction=south;" vertex="1" parent="1">
          <mxGeometry x="1022" y="750" width="76" height="30" as="geometry" />
        </mxCell>
        <mxCell id="RmMoZj5zxQ0tkyEaWaPj-12" value="&lt;font face=&quot;comic sans ms&quot; style=&quot;font-size: 12px&quot;&gt;&lt;b&gt;cali85354e41ec1&lt;/b&gt;&lt;/font&gt;" style="rounded=0;whiteSpace=wrap;html=1;fillColor=#dae8fc;strokeColor=#6c8ebf;direction=south;" vertex="1" parent="1">
          <mxGeometry x="991.62" y="920" width="136.75" height="22.5" as="geometry" />
        </mxCell>
        <mxCell id="RmMoZj5zxQ0tkyEaWaPj-13" value="" style="shape=image;imageAspect=0;aspect=fixed;verticalLabelPosition=bottom;verticalAlign=top;image=data:image/png,iVBORw0KGgoAAAANSUhEUgAAAEAAAABACAYAAACqaXHeAAAMEElEQVR4Xs1bC5AcZRHunr21UEJZYiGCghGRcJn+NxUiAQqwgoABI08hhocIKkSgMAiCIqCi8hIS0CqDvLFECU+BII8Q5CgE5GUqO/1fcsFogAJEo5Zl1ORub9rqZWb5d3ZmZya3l/BXbe3dTP/df3//q1+LMM6NiLZFxD1F5CMAsKN+I+KOAKD/bwsA/wKAl/WDiK+IiP79iud5tl6v8zgPD3A8BNRqtY+GYXgkABwBAHuPQcafAeB+AFg6MjLyxNDQ0L/HwCu1a88A0JkGgDkA8FkAOKDXAwWA/wDAEkR8OAiC63rFf8wATJs2rTo8PHxGGIZnIOLEXg0sh8+LiHhdL4AYEwC+75+IiGcAwG4FFP8nAKx2Pn+K/t4SAD4YnQe6iuLPjAI8xwzERgHg+/4hiPi1nKX+XwB4EgAerVQqi5cvX76qgEItklqttuXo6Oj+iLg/ABwIAP1d+r8YhuGZg4ODvysjQ2lLA+D7/gmI+PMugm4EgAdHRkYe7eWhVavV9gjD8DQAOCFDtt4mc5n59jIglALAGDNXRH6WIWApIi4IguChMgMoS+v7/kGe580TkYPS+iLi3DJnQ2EAiOh7APDdFKF/BID5zJwFTFkdC9FHK/EcAKCUDucy8xVFGBUCgIjuie70JM8bq9XqecuWLftbEWG9pjHG7CQiNwDAfim8z2HmK/Nk5gJARCrgyymMzmfmS/IEbIr3RKT7fnZSlogcbK19uNsYugJARKq4AtDWROQYa+2iTaFcURlEdD4A/DBJj4gzgiB4IotPJgC+709GRJvScSYzLyk6sE1JZ4w5QEQeTZmw6dba51MPzawBEtHTALCX+15EvmWtvXxTKlVWljHmFBG5NjHuVSJy5ODgYMeEpq4A3/cXIOLXXSaRDX5w/ExvBUR8KQzDl6y1z5UdaC/oa7XanmEY7gwAOzOz3lLNRkR6A3wjAcIt1tqTOrZI8oHv+3sjYtKiWsnMbZaYMeY4Ebk16q8u7Ev6EREWkWcGBweX9ULJmIcxRlfjnmoRikhTaQDYQd8j4vFBEPzSlUdEjwDApxOTeGAQBEvbniUHSUR6uH3eeb5eRGZZa3/r0vq+Px0Rn+2i5PoIlBcUkEql8kxR/z5WVkT2EpEpiKjKelmyRGSP5CqcPHnyVM/z1BRXXyNui5n50EwAIhtf/e9WQ8TvBEHwgzThRLQmCmzkTrYeqGEYzrbWDnYjNsYcLSJ35DJ8m+BlZk71Qo0xF4rI9xO85rjmctsZQER6grq+/OpGo7HHypUr/54BQJI+ddxFlXeWexkQljKzOksdTV31DRs26Hae7rx8ipn3if9vARC5tjcnZv/sIAgWZM0GES0EgFO7zVZZ5TcChGuYWZ2k1EZEGpVSS9ZtJzDzL/RBCwAieiY6ZGLCYN26ddPXrFmjezm1+b5/GiL+tMByvZSZv12ArkVCRLoNjs7rIyKnW2t1IjIbEamH+iWH4G5mPqoFwJQpU3YZHR0dSnA4Nc/BiQ6aP+QNUt+LyFXW2rOK0BZVXnmFYbhb3o1DRBqfvNuRPVKtVj+kPkxzBfi+f7KGmByCYc/zdqjX63/NGzAR/Q8Atsiji953Xa5KU0Z5AFjPzO/Okz1p0qStqtXqXwDgPTFtvHKaAKQ4E79hZg1u5jYiqgOAySV8m+BmZnaXY+ll78gKmLlWRDYRqVM006EdYOb9FACPiDTi6s7imcz844KMbwKApoWlB56I+Hn9EPG2IAiOdemKznxCRiaYyTEQ0dkA0OYeV6vVDyAR6RXS5tx4nmeKGi3x9olPe7XKAOC8HBDuZOaW+zpjxoy+tWvX3gkAh+f0u0htBM/z7lCgReQUa+31eYDr+7RzDhEPVwDUhVRXMm6vMrNmbgq1Wq1GIrLINXLSfAmHWZvy8XMNgoZhqAeVu0zdMVwU2/vqqSoIiDin6ERFW/0fAPA+h+k8BUBDWXOdh4X3f9xHB5S08DJshFTlHT5bA8C9iLhvAv2W8t1k5s0YEalL/AmHbr4CcBcAfM55eCMzfyWPWZH3RNQ6HwCgq/Ixv0mTJm1frVbvcwbaoXwR2Wk0ST9HRO5SAB4HADcJcQkzu1tiY+U1+xljfiUife6ez2MY5RbVJ1GDpeXm5vXLe09EFwOAa5A9pwAEicjqPGb+SR6z8X5PRP3MvKKXclJCfG8qAK8DwHaOoDZvqZcD2Ny8iEhXuq74uI0oAMMAUHUe7sfMA5t7sOMhn4g0zuEGc99QANRE1IRk3Hq+AvSeHxgYaJRRKu1mKdM/4xDUfKZr4LECoFEd11/u6RkQWXhVz/OOr9franHmtvieF5H7enkgpxyCA+j7/p2I2HQNo9azWyBh3j4iIsdaa9UYyWyO8k2TWkQWWGvVjB1zS0ny3K0rQO1jV0BpO8D3/d2Tcfc0215Enmw0GnOGhob04O1oSeUdgoXMfLrbIU1mHkJE9AAAzHLorlUAkvuilCUY3dmPeJ53ar1ef0yZ5zg2L3ieN7ter2v9T6t1UT6maU1MrVbbPwzDazzPm5nk0w0EY8xrIrK9Q3MxGmMOE5F7nYdvMrNWbBRqtVrtqDAM1ZHRBKma1McUiORo9dfs+J4voHw8Fg19q7+giY9tPM87ul6vqyWb24wx00TkBZcQEWfpGbA1IrYFPcMw3LdotYUx5nIROTdirCd9X+5oADrM25QDKotNSwYi/igIgm8WkKerMpne38DMW8YBkeTeuJKZNfee24hI8wVp6emsvpm2ve/78xGxUNgsYv44M38qd5BvmeSPiYhL29zqTQASWR59tJqZNRmR24hIa/cm5BK+RZDr2BCRBlkzo7wJOeuYeas82f39/dtVKhXNXrUMPgU6CIKr4pigboM3AOBdMTMtQbHWanops/X393+8UqkULX7KVT4W1KUmoWMso6Oju6xYsULTcpmNiL4KANe4BGEYkiZL3bC45vmOc4huYOaTuzE2xhwuIr/Om4EiM5/kQUTJ8aSKQcQjgiBwD/E2uokTJ24xYcIETd624pYi8qy1VvOMb+cFUraBhpwPGBwcbF5tac33/QsQMTVtFtOPd2JERC601nYURsTyjTFnich8d/wicpK19pY2APQfItI0Uqu2FxHvD4LgsCwAiOi2qDy26yIoC0LJ/OAiZtart6Ptuuuu7+/r61NT/2POy7ZUWjI3mPSW1BRV81UV7WgpsYRMIIqCUFJ5lcfMnBqWT0uOisih1trFrRWasvc0EnNI/NzdLy6tBiwAoFumdx0API+IzQ8AvFjUalPDCAB217AYImoMT/+udFlmk5PBEzWVEVGvaPeGup2ZtaC71ToqRDLqbG5l5i+4HR0LsDkL+hER63keNxoNm3cyd90zKS8ja1FD4QqOj4iT4xxEmkVIRFoY9cnE3t/HWvtUVwD0pe/7NyPiiYlxXMvMep00m1pWqmwYhrbXoaui4Dig+IkSmasBYF6bohlWY2qNEBHVEPGhhOOg/C5gZg0svmOb7/tfRMTmCe+0e5jZjXxnbwFnhjsOxOjdO7ZMzvf9oxBRHbO2VqlUPrx8+fLX0mYtr1AytT5YRA6z1raV0mzuJWGMuUxE0hyjrjHOIqWyyeKCWNfTmLnNvNxcIBCR5gc7kjkicpm1tmueMheA6MDLqgUq7DWOBzhTp07dptFoXK22Sgr/B5nZjf6kDqEQABEIHcWHEcfFIrIwryi51wBEDo6G8tK81rYbq5vswgAoE2PMsSLSVpDoMF/ked7Cer2utXnj1owxB4uIxgyyfplW6qYqBYBqpb/YQEQNQ7kFiK7CN3med329Xv99r1Bwfj+kRY5ppftqsr9eqVTmFQ2RxWMrDUAEgpqZegBO66Kk/pLkSa3ebjQaD5T9/RARqQOjxRta7qrf3YIu6jpfwcxarlOqbRQAsYSoMvuUHCBick23vZn4aFZKkyWq7E7Rt/6tH7eQIUupgaj6bKOv5DEBsJFAlJqhDOLVUcKka31gEUE9ASABhO5TXbZuwrXIWIrQLEbEJX19fbf36ndKPQUg1kDv5+Hh4VmI+JkIjPcW0S6DRm0Q/U3QEmZ+dQx8UruOCwBJSVFeXmv7tfhKv92/FRxV7BX91p/Qx9/r169/etWqVWt7rbTL7/8Qin+bCVtdYgAAAABJRU5ErkJggg==;" vertex="1" parent="1">
          <mxGeometry x="1028" y="820" width="64" height="64" as="geometry" />
        </mxCell>
        <mxCell id="RmMoZj5zxQ0tkyEaWaPj-14" value="&lt;font face=&quot;Comic Sans MS&quot; style=&quot;font-size: 14px&quot;&gt;&lt;b&gt;Container&lt;/b&gt;&lt;/font&gt;" style="text;html=1;resizable=0;autosize=1;align=center;verticalAlign=middle;points=[];fillColor=none;strokeColor=none;rounded=0;" vertex="1" parent="1">
          <mxGeometry x="1018" y="1030" width="80" height="20" as="geometry" />
        </mxCell>
      </root>
    </mxGraphModel>
  </diagram>
</mxfile>
